<svg width="149" height="53" viewBox="0 0 149 53" fill="none" xmlns="http://www.w3.org/2000/svg">
<path d="M74.185 53C72.7171 53 71.2492 52.9878 69.7813 52.9634C60.9401 52.9268 52.0989 52.8536 43.4948 52.6706C43.4722 52.6706 43.4496 52.6706 43.427 52.6706C41.4962 52.6706 39.3959 52.634 37.0586 52.5974C34.5858 52.5242 32.1129 52.451 29.6401 52.3412C27.3592 52.268 25.0784 52.207 22.7975 52.1582L22.1539 52.1216C20.0537 52.085 17.4792 52.0483 15.1419 50.2548C13.9563 49.3764 12.9739 48.2417 12.0932 47.2535L11.5173 46.5946C10.6366 45.6064 9.78973 44.5815 9.04449 43.5566L8.60411 43.0076C8.12987 42.422 7.65564 41.7997 7.1814 41.2141C6.74103 40.6285 6.40229 40.0794 6.16517 39.6402L6.02966 39.4206C5.72479 38.835 5.28441 38.0663 5.08116 37.0414C5.08116 36.9926 5.06988 36.9438 5.0473 36.895C4.79888 36.6998 4.56177 36.4802 4.33594 36.2362C3.89557 35.7604 3.55684 35.2845 3.28584 34.7355L3.1842 34.5159C2.57446 33.308 1.96474 32.0269 1.42275 30.7459C1.33242 30.5506 1.24207 30.3554 1.15174 30.1602C0.711371 29.1354 0.135531 27.8909 0.0339075 26.4268C0.0113245 26.2804 0 26.1462 0 26.0242C0 24.9261 0.203255 23.7548 0.643622 22.6202C1.08399 21.4489 1.69372 20.424 2.20184 19.5456C2.33733 19.3016 2.47286 19.0576 2.60835 18.8135C3.76008 16.7638 5.08117 14.8239 6.06353 13.3964C7.31688 11.6029 8.67187 9.7728 10.0946 8.01589C10.343 7.69867 10.5914 7.38144 10.8398 7.06422C11.7883 5.89295 12.8723 4.61189 14.3966 3.33081C17.7163 0.512444 21.9506 0.475842 25.3381 0.402638H25.643C28.59 0.366036 31.5032 0.329415 34.4164 0.292813L37.9055 0.25622C39.6669 0.207417 41.4171 0.183011 43.156 0.183011L48.4065 0.109802L53.6571 0.0732089L58.9076 0.0366156L64.1581 0H69.3748C71.1137 0 72.8639 0 74.6253 0C76.3642 0 78.1031 0 79.842 0C81.5809 0 83.3198 0 85.0587 0L90.2753 0.0366156L95.492 0.0732089C97.2309 0.0732089 98.9585 0.0854007 100.675 0.109802L105.858 0.146418C107.619 0.18302 109.347 0.183024 111.074 0.219627C112.655 0.244028 114.225 0.268412 115.783 0.292813L121.44 0.366022C123.179 0.414825 124.906 0.451423 126.623 0.475824C128.35 0.512427 130.383 0.622233 132.381 1.57389C132.618 1.7203 132.923 1.86671 133.194 2.01312C135.328 3.2942 136.92 5.0877 138.106 6.51519L138.309 6.77141C138.535 7.06423 138.761 7.34484 138.987 7.61326C139.596 8.3819 140.105 9.07735 140.545 9.7728C140.985 10.5048 141.392 11.1637 141.731 11.8225L141.798 11.9323C141.968 12.2618 142.239 12.7376 142.408 13.3964C142.408 13.4208 142.419 13.4452 142.442 13.4696C143.119 13.7624 143.932 14.3847 144.678 15.5559C144.915 15.922 145.084 16.288 145.253 16.6174C145.321 16.7638 145.389 16.898 145.457 17.02L145.694 17.4959C146.066 18.1913 146.371 18.8135 146.744 19.3992C147.252 20.241 147.591 21.1195 147.828 21.7783C147.862 21.9247 148.133 22.5836 148.133 22.5836C148.404 23.2058 148.675 23.9013 148.844 24.7431C149.454 27.7445 148.133 30.3798 147.32 31.9171L147.184 32.2099C147.026 32.5028 146.868 32.8078 146.71 33.125C146.62 33.3202 146.518 33.5032 146.405 33.674C145.728 35.0283 145.016 36.2362 144.271 37.4075C143.831 38.0663 143.39 38.7251 142.916 39.3474L142.713 39.6036C142.544 39.8232 142.306 40.1526 142.002 40.4821C141.753 40.7261 141.493 40.9579 141.222 41.1775L141.155 41.2873C140.816 42.3122 140.274 43.3004 139.596 44.1423C139.258 44.5571 138.93 44.9841 138.614 45.4234C137.429 46.9973 136.074 48.7908 134.278 50.1084C132.754 51.2431 131.263 51.5359 129.908 51.7555C127.503 52.1216 125.098 52.1582 122.761 52.2314L122.151 52.268C113.479 52.5242 104.672 52.7072 96.0001 52.8536C91.7545 52.9024 87.5089 52.939 83.2633 52.9634C82.2245 52.9634 81.1857 52.9634 80.1469 52.9634C78.1596 52.9878 76.1723 53 74.185 53V53Z" fill="url(#paint0_linear_108_81)"/>
<path d="M144.949 30.4897C144.746 30.9045 144.543 31.3072 144.339 31.6976C144.249 31.8684 144.159 32.0392 144.068 32.21C143.459 33.4179 142.781 34.5892 142.036 35.7238C141.652 36.3339 141.234 36.9317 140.783 37.5173C140.579 37.8101 140.376 38.1029 140.105 38.3592C139.902 38.5788 139.665 38.7618 139.394 38.9082C139.292 38.9448 139.19 39.018 139.055 39.0546C138.919 39.0912 138.75 39.0912 138.615 39.0912C138.276 39.0912 137.926 39.1156 137.565 39.1644C137.406 39.2132 137.237 39.2498 137.056 39.2742C137.023 39.3108 136.582 39.4206 136.582 39.4206C136.819 39.6768 137.124 39.8965 137.429 40.0429C137.587 40.1161 137.756 40.1649 137.937 40.1893C138.027 40.1893 138.106 40.1893 138.174 40.1893C138.344 40.1527 138.479 40.2259 138.648 40.2625C138.377 40.9945 138.005 41.6534 137.531 42.239C136.04 44.1057 134.651 46.3018 132.754 47.6927C131.738 48.4614 130.756 48.681 129.536 48.864C127.063 49.23 124.523 49.2666 122.05 49.3398C113.356 49.6082 104.661 49.8035 95.9667 49.9255C92.2067 49.9621 88.4805 49.9987 84.7543 50.0353C84.2575 50.0353 83.7606 50.0353 83.2638 50.0353C82.225 50.0353 81.1749 50.0353 80.1135 50.0353C76.6583 50.0719 73.237 50.0719 69.7818 50.0353C61.0422 50.0109 52.2913 49.9133 43.5291 49.7425C41.3837 49.7425 39.2497 49.7181 37.1269 49.6693C36.3365 49.6449 35.5461 49.6204 34.7557 49.596C30.7924 49.4862 26.829 49.3032 22.8657 49.23C20.6978 49.1568 18.5637 49.3032 16.7006 47.8757C15.6166 47.0339 14.6681 45.9358 13.7535 44.911C13.6632 44.8134 13.5729 44.7035 13.4825 44.5815C12.6695 43.6543 11.8791 42.6904 11.1113 41.69C10.4677 40.8847 9.85797 40.0429 9.21436 39.2742C8.94337 38.9082 8.70622 38.5422 8.4691 38.1396C8.1981 37.5905 7.85938 37.0781 7.72388 36.4559C7.72388 36.3461 7.72387 36.2362 7.75774 36.163C7.82549 36.0898 7.92714 36.0532 7.99489 36.0532C9.55311 35.7604 11.1452 35.9068 12.6695 35.5774C12.9857 35.5286 13.2906 35.4432 13.5842 35.3212C12.184 35.3212 10.7839 35.309 9.38373 35.2846C9.02241 35.309 8.66105 35.2968 8.29973 35.248C8.16423 35.2236 8.02875 35.1992 7.89325 35.1748C7.28351 35.0284 6.70763 34.6624 6.26726 34.1865C6.04143 33.9181 5.84949 33.6375 5.69141 33.3447C5.0478 32.0636 4.43805 30.8191 3.86219 29.5014C3.42182 28.4766 2.7782 27.3053 2.71045 26.1706C2.71045 26.0974 2.71045 26.0364 2.71045 25.9876C2.71045 25.219 2.87984 24.4503 3.15083 23.7183C3.62507 22.5104 4.33645 21.3758 4.94619 20.3509C5.92855 18.5574 7.08026 16.8371 8.23199 15.1534C9.48535 13.3599 10.7726 11.6396 12.1276 9.91926C12.376 9.60204 12.6244 9.30921 12.8728 9.0408C13.8551 7.79632 14.8036 6.73486 16.057 5.6368C18.7669 3.36746 22.4931 3.40406 25.7112 3.33086C29.8439 3.25766 33.8749 3.22104 37.9398 3.18444C39.7013 3.13564 41.4515 3.11123 43.1904 3.11123C44.9518 3.07463 46.6794 3.07463 48.4409 3.03802C50.1798 3.03802 51.93 3.02583 53.6914 3.00143C55.4303 3.00143 57.1805 2.98924 58.942 2.96484C60.6696 2.96484 62.3972 2.92822 64.1586 2.92822C65.8975 2.92822 67.6364 2.92822 69.3753 2.92822C71.1368 2.92822 72.887 2.92822 74.6258 2.92822C75.5517 2.92822 76.4889 2.92822 77.4374 2.92822C78.2165 2.92822 79.0295 2.92822 79.8425 2.92822C81.5814 2.92822 83.3203 2.92822 85.0592 2.92822C86.7981 2.92822 88.5256 2.94044 90.2419 2.96484C91.9808 2.96484 93.7197 2.97703 95.4586 3.00143C97.1975 3.00143 98.9364 3.01362 100.675 3.03802C102.392 3.06243 104.119 3.07464 105.858 3.07464C107.597 3.09904 109.325 3.12345 111.041 3.14785C112.78 3.17225 114.507 3.19663 116.224 3.22104C116.585 3.22104 116.946 3.23325 117.308 3.25765C118.685 3.25765 120.051 3.26984 121.406 3.29424C123.145 3.31865 124.873 3.35524 126.589 3.40405C128.215 3.44065 129.773 3.55047 131.264 4.24592C131.467 4.34352 131.67 4.45331 131.874 4.57532C133.5 5.56358 134.855 6.95448 136.074 8.45517C136.345 8.82119 136.65 9.1506 136.921 9.51662C137.429 10.1389 137.903 10.7611 138.31 11.4199C138.671 12.03 139.021 12.6522 139.36 13.2866C139.529 13.5429 139.732 13.8357 139.8 14.1285C139.8 14.1773 139.8 14.2261 139.8 14.2749C139.8 14.4213 139.699 14.4579 139.597 14.5311C139.292 14.6409 138.784 14.9704 139.055 15.4096C139.123 15.556 139.292 15.6292 139.428 15.6658C139.789 15.7878 140.139 15.9098 140.478 16.0318C140.613 16.0806 140.737 16.105 140.85 16.105C140.952 16.105 141.054 16.0684 141.155 16.105C141.697 16.2148 142.104 16.6907 142.409 17.1665C142.68 17.6057 142.883 18.045 143.12 18.5208C143.56 19.326 143.967 20.1679 144.475 20.9731C144.814 21.5953 145.085 22.2542 145.322 22.913C145.389 23.0839 145.446 23.2425 145.491 23.3889C145.762 24.0477 146.067 24.6699 146.202 25.3654C146.575 27.1955 145.728 28.9524 144.949 30.4897V30.4897Z" fill="url(#paint1_linear_108_81)"/>
<path style="mix-blend-mode:screen" d="M117.442 3.58706C114.021 3.11123 110.532 4.42891 107.653 6.51524C104.773 8.56496 102.402 11.3467 100.065 14.0919C96.5869 18.1669 93.1091 22.2542 89.6313 26.3536C87.6892 28.6474 85.747 30.9289 83.8049 33.1983C82.8113 34.3451 81.8289 35.492 80.8578 36.6389C80.3836 37.2245 79.9093 37.8101 79.4012 38.3592C77.8091 40.1527 76.6235 42.5684 75.6073 44.728C75.1669 45.6796 74.7605 46.7045 74.896 47.7293C75.0653 48.7542 75.7767 49.3032 76.6235 49.5595C77.0978 49.7059 77.5381 49.7058 78.0463 49.7058C80.282 49.8157 82.5177 49.9621 84.7534 50.0353C84.2566 50.0353 83.7597 50.0353 83.2629 50.0353C82.2015 50.0353 81.1514 50.0353 80.1126 50.0353C76.6574 50.0719 73.2361 50.0719 69.7809 50.0353C61.0413 50.0109 52.2904 49.9133 43.5282 49.7425C41.3828 49.7425 39.2488 49.7181 37.126 49.6693C36.3356 49.6449 35.5452 49.6204 34.7548 49.596C34.5515 49.4984 34.3483 49.4008 34.145 49.3032C37.7357 49.413 41.3264 48.5712 44.5784 46.9973C46.6108 46.009 48.5416 44.728 50.2692 43.1907C52.1662 41.4704 53.5889 39.384 55.2149 37.4075C57.6087 34.5525 60.0138 31.6976 62.4302 28.8426C67.2177 23.1082 72.0053 17.3739 76.7929 11.6395C77.8769 10.3585 78.9948 8.9676 79.2996 7.2839C79.5706 5.56359 78.656 3.47727 77.0639 3.33086C77.1768 3.18445 77.301 3.05023 77.4365 2.92822C78.2157 2.92822 79.0286 2.92822 79.8416 2.92822C81.5805 2.92822 83.3194 2.92822 85.0583 2.92822C86.7746 2.92822 88.5022 2.94044 90.241 2.96484C91.9799 2.96484 93.7188 2.97703 95.4577 3.00143C97.1966 3.00143 98.9355 3.01362 100.674 3.03802C102.391 3.06243 104.118 3.07464 105.857 3.07464C107.596 3.09904 109.324 3.12345 111.04 3.14785C112.779 3.17225 114.506 3.19663 116.223 3.22104C116.584 3.22104 116.945 3.23325 117.307 3.25765C117.352 3.37966 117.397 3.48945 117.442 3.58706V3.58706Z" fill="url(#paint2_linear_108_81)"/>
<path d="M139.258 24.0845C139.495 24.9629 139.935 25.7682 140.545 26.427C140.646 26.5734 140.748 26.6832 140.748 26.8663C140.748 26.9395 140.714 27.0493 140.68 27.1225C140.274 27.9765 139.879 28.8184 139.495 29.648C139.291 30.0872 139.088 30.5143 138.885 30.9291C138.817 31.1487 138.716 31.2951 138.648 31.5147C138.546 31.9174 138.241 32.2468 138.004 32.5762C137.53 33.235 137.056 33.9305 136.514 34.5161C136.31 34.7357 136.073 34.8821 135.87 35.175C135.328 35.9436 134.786 36.7854 134.346 37.6273C134.143 37.9567 134.143 38.2861 134.041 38.6156C133.996 38.8108 133.917 38.9816 133.804 39.128C133.228 39.8966 132.449 40.4823 131.805 41.1411C131.229 41.7634 130.755 42.4588 130.112 42.9712C128.486 44.2889 126.318 43.8497 124.319 44.1059C120.288 44.5817 116.223 44.1425 112.192 43.9961C106.399 43.7765 101.081 44.7281 95.2886 44.6183C92.4883 44.5695 89.6993 44.5207 86.9216 44.4719C87.1701 45.0331 87.4297 45.5822 87.7007 46.119C85.0246 44.5451 81.8405 44.4353 78.8256 44.3987C75.2011 44.3255 71.5765 44.3255 67.952 44.3255C67.3084 44.3255 66.6647 44.3255 66.1227 44.6549C65.5808 44.9843 65.2081 45.753 65.4791 46.3386C65.2081 45.0576 63.6838 44.7647 62.4643 44.7647C51.3986 44.6183 40.333 44.4719 29.2674 44.3255C27.9801 44.3255 26.6929 44.2889 25.4057 44.2157C24.1523 44.1425 22.9329 44.0327 21.7134 43.8131C21.1262 43.6911 20.5278 43.5447 19.918 43.3738C19.6245 43.3006 19.3309 43.2152 19.0373 43.1176C18.6986 43.0078 18.4275 42.8248 18.1227 42.5686C17.9194 42.4222 17.7162 42.2758 17.5807 42.0562C17.0726 41.1411 16.429 40.2261 15.8192 39.3842C15.345 38.7742 14.8595 38.1641 14.3626 37.5541C14.0916 37.2613 13.832 36.9685 13.5835 36.6756C12.9738 35.9802 12.6012 35.2115 12.1608 34.4063C10.7042 31.5879 9.48474 28.6232 8.33301 25.6584C11.4495 29.9042 15.0062 33.9671 18.1227 38.2129C18.9695 39.3476 19.8503 40.5189 21.0359 41.1777C22.2554 41.8365 23.6781 41.9098 25.0331 41.9464C58.1961 43.1542 91.3592 42.8614 124.488 41.1411C126.318 41.0679 128.215 40.9215 129.807 39.9698C131.128 39.1646 132.11 37.8835 132.991 36.6024C135.531 32.9422 137.632 28.2937 139.258 24.0845V24.0845Z" fill="#D8E0EB"/>
<path d="M102.267 8.16246C101.996 8.56509 101.691 8.96772 101.284 9.22394C100.708 9.55336 100.031 9.55335 99.3873 9.44354C98.9582 9.39474 98.5292 9.32154 98.1001 9.22394C98.8453 8.93112 99.6018 8.73592 100.37 8.63831C100.573 8.63831 100.776 8.6017 100.946 8.49189C101.115 8.41869 101.217 8.23569 101.352 8.08928C101.691 7.67445 102.041 7.25962 102.402 6.84479C102.763 6.45437 103.136 6.06394 103.52 5.67352C103.61 5.57591 103.712 5.47831 103.825 5.3807C103.87 5.3075 103.926 5.2465 103.994 5.19769C104.028 5.16109 104.062 5.08789 104.13 5.08789C103.926 5.49052 103.655 5.89313 103.418 6.29576C103.193 6.71058 102.955 7.1132 102.707 7.50363C102.572 7.72324 102.425 7.94285 102.267 8.16246V8.16246Z" fill="#D8E0EB"/>
<path d="M11.3148 17.6789C11.0213 17.5813 10.7277 17.4837 10.4341 17.3861C10.3664 17.3861 9.75664 17.2031 9.89214 17.0567C9.92601 17.0201 10.0615 17.0567 10.0954 17.0567C10.1857 17.0567 10.2647 17.0567 10.3325 17.0567C10.4906 17.0567 10.6487 17.0567 10.8067 17.0567C11.1003 17.0323 11.4052 17.0201 11.7214 17.0201C12.4327 17.0201 13.1441 16.9835 13.7877 17.3495C13.4038 18.1059 13.0086 18.8502 12.6021 19.5822C12.6247 19.2406 12.636 18.899 12.636 18.5574C12.636 18.4109 12.6359 18.1913 12.5343 18.0815C12.4666 18.0449 12.3988 18.0083 12.3311 17.9717C11.9923 17.8741 11.6536 17.7765 11.3148 17.6789V17.6789Z" fill="#D8E0EB"/>
<path d="M16.5645 34.626C15.9547 34.1867 15.5482 33.4913 15.2773 32.7592C14.9724 32.0272 14.7691 31.2585 14.3965 30.5631C15.2433 30.3069 16.158 30.3801 17.0387 30.4533C18.5743 30.5265 20.11 30.5265 21.6456 30.4533C22.1199 30.4533 22.5941 30.4167 23.0345 30.5997C20.7762 30.8681 18.5292 31.2219 16.2935 31.6612C16.1241 31.6978 15.9547 31.7344 15.8531 31.8442C15.7854 31.954 15.7854 32.0638 15.7854 32.1736C15.7176 32.8324 15.9886 33.4547 16.2596 34.0403C16.3612 34.2599 16.5306 34.4063 16.5645 34.626Z" fill="#D8E0EB"/>
<path d="M134.041 24.3039C133.635 24.2795 133.24 24.2551 132.856 24.2307C132.754 24.2307 132.686 24.1941 132.585 24.2307C132.539 24.2307 132.483 24.2185 132.415 24.1941C132.257 24.1697 132.099 24.1331 131.941 24.0843C131.625 24.0355 131.309 23.9745 130.993 23.9013C130.722 23.8525 130.462 23.8037 130.213 23.7549C130.281 23.7549 130.349 23.7549 130.451 23.7549C130.518 23.7549 130.597 23.7549 130.688 23.7549C130.846 23.7549 131.004 23.7427 131.162 23.7183C131.478 23.7183 131.806 23.6939 132.144 23.6451C132.46 23.6207 132.777 23.5719 133.093 23.4987C133.228 23.4987 133.33 23.4621 133.465 23.4987C133.567 23.4987 133.702 23.4987 133.804 23.4987C134.448 23.4987 135.125 23.4987 135.769 23.5719C135.814 23.5963 135.87 23.6085 135.938 23.6085C136.108 23.6451 136.311 23.6817 136.48 23.8281C136.582 23.9013 136.65 24.0111 136.717 24.1209C136.966 24.5602 137.214 24.9994 137.463 25.4386C137.496 25.5118 137.53 25.585 137.564 25.6948C137.564 25.8046 137.53 25.9144 137.53 25.9876C137.361 26.5733 137.09 27.1223 136.717 27.5615C136.785 27.0491 136.853 26.4635 136.717 25.951C136.548 25.4386 136.141 24.9994 135.667 24.7432C135.227 24.487 134.685 24.4137 134.177 24.3405C134.132 24.3405 134.086 24.3283 134.041 24.3039Z" fill="#D8E0EB"/>
<path fill-rule="evenodd" clip-rule="evenodd" d="M140.647 26.3902C140.477 26.7929 140.206 27.3785 140.071 27.5981C139.054 29.6112 138.208 31.2583 137.191 32.8322C136.446 34.0401 135.633 35.248 134.752 36.4558C133.33 38.3958 131.805 40.2625 130.247 42.0926C130.044 42.3488 129.807 42.5684 129.536 42.7148C127.74 43.6665 124.522 43.2272 122.558 43.3004L121.914 43.337C113.276 43.5933 104.536 43.7763 95.8646 43.8861C94.408 43.8861 92.9514 43.9227 91.4609 43.9593C90.8851 43.9593 90.3431 43.8495 89.7672 43.8861C89.0445 43.9593 88.3219 44.0325 87.5993 44.1057C87.7574 44.9841 87.9606 45.826 88.209 46.6312C87.667 45.9358 87.0911 45.2404 86.3798 44.7279C85.8039 44.2887 85.1264 43.9959 84.4151 43.9959C81.2648 43.9959 78.1144 44.0325 74.9641 44.0325C74.8964 44.0325 74.8286 44.0325 74.7609 44.0325C73.4511 44.0325 72.1525 44.0325 70.8653 44.0325C70.5604 44.0325 70.2555 44.0325 69.9507 44.0691C69.6797 44.0691 69.4426 43.9959 69.1716 43.9593C68.5393 43.8861 67.9182 43.8739 67.3085 43.9227C67.173 43.9593 67.0375 43.9593 66.9697 44.0325C66.8681 44.1423 66.8343 44.2521 66.7665 44.3619C66.1568 45.9236 65.547 47.4975 64.9373 49.0836C65.1631 47.5463 65.3889 45.9968 65.6148 44.4351C65.6148 44.3253 65.6487 44.1789 65.5809 44.0691C65.4793 43.9593 65.3099 43.9227 65.1744 43.9227C64.5646 43.9227 63.9549 43.9227 63.3452 43.9227C62.7354 43.9227 62.1596 43.9959 61.5498 43.9959C55.5879 43.9227 49.6147 43.8373 43.6303 43.7397H43.5286C36.0085 43.7397 28.4884 43.3736 20.9683 43.1174C19.6472 43.0808 18.9697 42.0926 18.1228 41.1409L17.7841 40.7383C16.6323 39.4572 15.5484 38.0663 14.4983 36.6388C13.482 35.248 12.4997 33.7473 11.5851 32.2466C10.6027 30.5263 9.6881 28.7694 8.94286 26.9759C8.82995 26.7562 8.71703 26.5122 8.60412 26.2438C8.53637 26.134 8.46863 25.951 8.40088 25.8046C8.60413 25.3654 8.94288 24.7431 9.21387 24.3039C9.39454 24.0111 9.55263 23.7305 9.68812 23.4621C10.1849 22.5836 10.7043 21.7295 11.2463 20.8999C11.4948 20.5339 11.7431 20.1679 11.9916 19.8018C12.1948 19.509 12.3642 19.143 12.6013 18.8868C12.8723 18.6672 13.0756 18.3743 13.2449 18.0449C13.2788 18.0083 13.3127 17.9351 13.2788 17.8985C13.2449 17.8619 13.211 17.8253 13.1772 17.7887C11.9577 17.3129 10.6705 17.0933 9.38325 17.2031C9.82361 16.9468 10.2978 16.9102 10.806 16.9102C11.3931 16.8614 11.9916 16.8248 12.6013 16.8004C13.0417 16.8004 13.5159 16.7638 13.9224 16.5808C14.1934 16.471 14.4305 16.288 14.6676 16.0684C14.8709 15.8488 15.0064 15.556 15.1758 15.2997C15.2774 15.1167 15.4806 14.9703 15.6161 14.8239C15.8533 14.4945 16.0904 14.1651 16.3614 13.8723C17.547 12.3716 18.36 11.3833 19.5117 10.3951C21.6458 8.60155 26.1172 9.37019 28.6239 9.33358C33.5018 9.26038 38.3797 9.11398 43.2577 9.11398C44.9965 9.08958 46.7467 9.07736 48.5082 9.07736C50.2471 9.05296 51.986 9.02858 53.7249 9.00418C57.2026 8.97978 60.6917 8.96756 64.192 8.96756C65.9309 8.96756 67.6698 8.95537 69.4087 8.93097C75.8787 8.93097 82.3487 8.93096 88.8526 8.96756C91.2238 9.00416 93.595 8.89435 95.9662 9.07736C97.2535 9.18717 98.5746 9.11398 99.8618 9.11398C100.201 9.11398 100.505 9.07737 100.81 8.96756C101.115 8.85775 101.386 8.52834 101.623 8.30873C101.996 7.97931 102.233 7.54007 102.504 7.13745C103.046 6.3078 103.633 5.52697 104.265 4.79492C103.701 6.137 103.125 7.47908 102.538 8.82117C103.148 8.96757 103.791 9.00416 104.435 9.07736C104.943 9.11397 105.451 9.04076 105.959 9.07736C107.145 9.15057 108.297 9.15057 109.482 9.15057C109.979 9.15057 110.476 9.16279 110.973 9.18719C112.712 9.18719 114.439 9.21157 116.155 9.26037C117.883 9.26037 119.611 9.29698 121.338 9.33358C123.054 9.35798 124.771 9.38239 126.487 9.40679C127.605 9.44339 128.452 9.5166 128.994 9.77281C129.062 9.79722 129.118 9.82162 129.163 9.84602C132.313 11.7493 134.651 15.8854 136.717 18.96C137.53 20.241 138.309 21.4855 138.987 22.73C139.461 23.5719 139.867 24.4503 140.342 25.6948C140.443 25.8778 140.613 26.3536 140.647 26.3902V26.3902ZM137.225 26.2804C137.259 26.2072 136.954 25.6948 136.92 25.6216C136.853 25.4752 136.717 25.402 136.616 25.2555C136.412 24.9627 136.345 24.5601 136.006 24.3771C135.87 24.3039 135.735 24.2673 135.599 24.2673C133.544 23.9745 131.489 23.8159 129.434 23.7915C131.331 23.7915 133.228 23.3522 134.956 22.5104C135.023 21.8515 134.515 21.3757 134.177 20.9365C133.872 20.4607 133.567 19.9482 133.228 19.4358C131.636 16.9469 129.807 14.1285 127.774 12.8474C127.639 12.8108 127.266 12.7742 126.419 12.7742C124.703 12.7254 122.987 12.6888 121.27 12.6644C119.554 12.64 117.838 12.6156 116.122 12.5912C114.383 12.5668 112.655 12.5424 110.939 12.518C109.222 12.4936 107.495 12.4692 105.756 12.4448C94.8823 12.335 84.7199 12.2984 74.7609 12.2984C72.9768 12.2984 71.1927 12.2984 69.4087 12.2984C67.6698 12.2984 65.9309 12.2984 64.192 12.2984C60.7142 12.3228 57.2365 12.3472 53.7587 12.3716C52.0198 12.3716 50.2697 12.3838 48.5082 12.4082C46.7806 12.4448 45.053 12.4448 43.2577 12.4814C39.8702 12.4814 36.415 12.518 33.0615 12.5912C31.5936 12.6156 30.1257 12.64 28.6578 12.6644H28.4206C27.8335 12.6644 27.2012 12.64 26.5237 12.5912C25.8462 12.5546 25.1009 12.518 24.3896 12.518C22.12 12.518 21.5103 12.9572 21.4087 13.0304C20.4941 13.7991 19.8166 14.6409 18.6987 16.0684C17.4454 17.6057 16.2597 19.1796 15.1758 20.7535C14.3289 21.998 13.2449 23.6084 12.3303 25.1823C12.1948 25.4508 12.048 25.707 11.89 25.951C11.89 26.0242 12.1271 26.4634 12.1609 26.5C12.2964 26.7928 12.432 27.0979 12.5674 27.4151C12.7029 27.6347 12.8046 27.8909 12.9401 28.1105C13.0417 28.2569 13.1094 28.4033 13.211 28.5864C13.4481 28.9158 13.7869 29.172 14.1595 29.355C14.6676 29.5746 15.2435 29.6478 15.7855 29.6844C18.4277 29.9528 21.0699 30.2335 23.7121 30.5263C20.9796 30.7459 18.2358 30.9655 15.4806 31.1851C15.3113 31.1851 15.0741 31.2583 15.0064 31.4413C14.9725 31.5877 15.0741 31.7341 15.1419 31.8439C15.4355 32.3564 15.7403 32.8688 16.0565 33.3812C16.2936 33.8205 16.6323 34.1865 16.9372 34.5891C17.9196 35.9068 18.9358 37.2245 20.0198 38.4323L20.3586 38.835C20.4941 38.957 20.6183 39.0912 20.7312 39.2376C20.8667 39.4206 21.0699 39.6768 21.2054 39.7866C23.2153 39.8598 25.2139 39.933 27.2012 40.0062C32.5533 40.1892 38.1088 40.3723 43.5625 40.3723H43.698C52.3699 40.5553 61.1772 40.6651 69.8152 40.7017C71.5315 40.7017 73.2478 40.7017 74.9641 40.7017C81.9084 40.7017 88.9204 40.6285 95.8307 40.5553C104.469 40.4455 113.208 40.2259 121.812 39.9696H122.49C122.648 39.9452 122.817 39.933 122.998 39.933C123.405 39.9574 123.856 39.9696 124.353 39.9696C124.793 40.0062 125.301 40.0062 125.776 40.0062C127.063 40.0062 127.673 39.8964 127.978 39.7866C129.57 37.9199 131.026 36.1264 132.313 34.3695C133.126 33.2348 133.939 32.1002 134.651 30.9289C135.498 29.5746 136.311 28.0739 137.225 26.2804V26.2804ZM129.299 23.7915C129.344 23.7915 129.389 23.7915 129.434 23.7915C129.389 23.7915 129.344 23.7915 129.299 23.7915Z" fill="url(#paint3_linear_108_81)"/>
<path d="M138.749 40.3359C138.727 40.3359 138.715 40.3481 138.715 40.3725C138.309 40.9947 138.004 41.6902 137.53 42.2392C136.039 44.1059 134.651 46.302 132.754 47.6929C131.737 48.4616 130.755 48.6812 129.536 48.8642C127.063 49.2302 124.522 49.2668 122.049 49.34C113.355 49.6084 104.66 49.8037 95.966 49.9257C91.7204 49.9745 87.4861 50.0111 83.2631 50.0355C82.2017 50.0355 81.1516 50.0355 80.1127 50.0355C76.6576 50.0721 73.2362 50.0721 69.7811 50.0355C61.0415 50.0111 52.2906 49.9135 43.5284 49.7427C41.383 49.7427 39.2489 49.7183 37.1262 49.6695C32.3499 49.5597 27.6074 49.34 22.865 49.2302C20.697 49.157 18.563 49.3034 16.6999 47.8759C15.6159 47.0341 14.6674 45.936 13.7528 44.9112C13.6625 44.7892 13.5721 44.6794 13.4818 44.5817C12.6688 43.6545 11.8784 42.6906 11.1106 41.6902C10.467 40.8849 9.85724 40.0431 9.21363 39.2744C8.94263 38.9084 8.70549 38.5424 8.46837 38.1398C8.19737 37.5907 7.85864 37.0783 7.72314 36.4561C7.72314 36.3463 7.72314 36.2364 7.75701 36.1632C7.82476 36.09 7.92641 36.0534 7.99416 36.0534C9.55238 35.7606 11.1445 35.907 12.6688 35.5776C12.9398 35.5776 13.2108 35.5654 13.4818 35.541C12.2849 35.9802 11.0541 36.2853 9.78948 36.4561C9.51848 36.4927 9.17973 36.5293 8.97648 36.7489C8.60386 37.1515 8.80713 37.7737 9.04425 38.1764C9.22492 38.5424 9.42814 38.884 9.65397 39.2012C10.083 39.8845 10.546 40.5311 11.0429 41.1411C11.8558 42.1294 12.7366 43.0079 13.6173 43.9229C14.227 44.5573 14.8368 45.1918 15.4465 45.8262C15.8869 46.2655 16.2934 46.7047 16.8015 47.0707C17.6484 47.6563 18.6307 47.9492 19.6131 48.2054C20.0873 48.3518 20.5616 48.4738 21.0358 48.5714C21.2052 48.608 21.3745 48.6446 21.5778 48.6446C21.7472 48.608 21.9165 48.6446 22.1198 48.6812C22.5263 48.73 22.944 48.7666 23.3731 48.791C24.2313 48.8398 25.0894 48.8398 25.9476 48.791C26.6251 48.7544 27.3025 48.7178 27.9462 48.4616C28.2849 48.3518 28.5898 48.4616 28.9285 48.4982C29.7867 48.6202 30.6561 48.7422 31.5369 48.8642C32.045 48.8642 32.5531 49.1204 33.0612 49.0472C33.1967 49.0472 33.3322 49.0106 33.5016 49.0106C33.5919 49.0106 33.6935 49.0106 33.8064 49.0106C34.3823 49.1204 34.9582 49.2668 35.534 49.34C36.2793 49.4864 37.1261 49.5597 37.8714 49.3766C37.9391 49.3766 37.973 49.34 38.0407 49.3034C38.2101 49.2668 38.4133 49.3034 38.6166 49.3034C39.7006 49.3278 40.7846 49.3522 41.8686 49.3766C44.0591 49.4255 46.2496 49.4742 48.4402 49.523C50.6307 49.5718 52.81 49.6207 54.978 49.6695C56.0958 49.7061 57.1798 49.7427 58.2638 49.7427C58.3993 49.7427 58.5348 49.7061 58.6703 49.6695C59.0429 49.5231 59.4155 49.5596 59.7881 49.523C60.2398 49.4742 60.6801 49.4376 61.1092 49.4132C62.8481 49.2912 64.587 49.218 66.3259 49.1936C68.0648 49.1692 69.8149 49.1692 71.5764 49.1936C73.304 49.2302 75.0655 49.2668 76.7931 49.3034C77.177 49.3278 77.5609 49.34 77.9448 49.34C79.0062 49.3644 80.0676 49.3888 81.129 49.4132C81.4339 49.4498 81.7387 49.4132 82.0436 49.4865C82.3146 49.5963 82.5517 49.6329 82.8566 49.6329C83.7373 49.6085 84.6181 49.5718 85.4988 49.523C87.2377 49.4742 88.9879 49.4255 90.7493 49.3766C92.5108 49.3278 94.261 49.2912 95.9999 49.2668C96.4967 49.2424 96.9822 49.2302 97.4565 49.2302C107.653 49.0472 117.51 48.5348 127.706 48.4616C128.723 48.4616 129.739 48.4616 130.653 48.0224C131.568 47.6197 132.313 46.7413 132.381 45.7164C132.381 45.9726 132.652 46.1923 132.923 46.1557C133.228 46.1191 133.465 45.936 133.702 45.753C134.888 44.7282 136.073 43.6667 136.988 42.3856C137.157 42.1294 137.293 41.9098 137.462 41.6536C137.53 41.5804 137.564 41.5072 137.564 41.3608C137.53 40.7385 137.09 40.1163 136.717 39.6771C136.672 39.6039 136.615 39.5429 136.548 39.4941C137.259 39.3842 138.004 39.5306 138.614 39.8967C138.682 39.9333 138.783 40.0065 138.783 40.1163C138.817 40.1895 138.783 40.2627 138.749 40.3359V40.3359Z" fill="#D8E0EB"/>
<path d="M144.949 30.4898C144.745 30.9046 144.542 31.3072 144.339 31.6977C144.249 31.8685 144.158 32.0393 144.068 32.2101C143.458 33.4179 142.781 34.5892 142.036 35.7239C141.652 36.3339 141.234 36.9318 140.782 37.5174C140.376 38.0298 140.037 38.5789 139.427 38.8717C139.337 38.9205 139.235 38.9693 139.122 39.0181C141.155 36.2363 143.153 33.4179 144.339 30.1237C144.779 28.9525 145.118 27.7446 145.66 26.6465C145.762 26.4635 145.863 26.2805 145.863 26.0609C145.863 25.8779 145.762 25.7315 145.694 25.5851C145.152 24.4138 144.474 23.1693 143.323 22.7301C143.086 22.6569 142.848 22.5105 142.916 22.2909C142.95 22.1811 143.052 22.1079 143.153 22.0347C143.526 21.7052 143.357 21.0464 143.119 20.534C142.645 19.4725 142.171 18.411 141.663 17.3496C141.561 17.13 141.358 17.0934 141.155 17.0202C140.613 16.7639 140.071 16.4345 139.597 16.0319C139.371 15.8367 139.167 15.6293 138.987 15.4097C139.8 15.5073 140.59 15.7025 141.358 15.9953C141.561 16.1051 141.798 16.1783 141.968 16.3613C142.036 16.4711 142.069 16.5443 142.103 16.6907C142.137 16.8006 142.205 16.8738 142.273 16.9836C142.611 17.4594 142.848 18.0084 143.119 18.5209C143.56 19.3261 143.966 20.1679 144.474 20.9732C144.813 21.5954 145.084 22.2543 145.321 22.9131C145.389 23.0839 145.446 23.2425 145.491 23.3889C145.762 24.0478 146.067 24.67 146.202 25.3655C146.575 27.1956 145.728 28.9525 144.949 30.4898V30.4898Z" fill="#D8E0EB"/>
<path d="M139.732 14.5677C139.665 14.6409 139.563 14.7141 139.461 14.7141C138.445 13.0792 137.44 11.4443 136.447 9.80943C135.905 8.96758 135.532 8.23555 134.753 7.75972C134.109 7.3571 133.567 6.88127 132.856 6.66165C132.551 6.55185 132.212 6.47865 132.043 6.18583C131.907 6.03942 131.874 5.8564 131.806 5.67339C131.467 4.86814 130.586 4.90476 129.909 4.61194C129.706 4.50213 129.536 4.46553 129.299 4.42893C128.644 4.40453 127.989 4.36791 127.334 4.3191C126.025 4.2459 124.715 4.1727 123.405 4.0995C121.102 3.95309 118.798 3.80668 116.495 3.66027C115.241 3.58706 113.954 3.51387 112.701 3.51387C111.447 3.55047 110.194 3.62366 108.941 3.58706C108.568 3.55046 108.162 3.55047 107.789 3.44066C107.416 3.29425 107.044 3.36745 106.671 3.36745C105.723 3.39186 104.785 3.41626 103.859 3.44066C101.251 3.51387 98.6089 3.66027 96.0006 3.66027C95.4925 3.66027 94.9844 3.66027 94.544 3.91649C94.1036 4.1727 93.9004 4.57533 93.8665 5.08776C93.8665 5.16097 93.9004 5.27076 93.8326 5.30737C93.7649 5.41717 93.6633 5.38058 93.5616 5.34398C93.189 5.19757 92.8841 4.79493 92.6131 4.50211C92.4099 4.2825 92.218 4.06289 92.0373 3.84328C91.9357 3.69687 91.8679 3.58706 91.6986 3.58706C91.5292 3.58706 91.3598 3.62366 91.1904 3.66027C90.5581 3.75787 89.9258 3.81888 89.2935 3.84328C88.6612 3.86768 88.0175 3.85549 87.3626 3.80668C87.0916 3.80668 86.7868 3.80669 86.4819 3.69688C86.3125 3.66028 86.1431 3.55046 85.9738 3.55046C85.3302 3.47726 84.6526 3.55046 84.009 3.55046C83.3541 3.57487 82.6992 3.58706 82.0443 3.58706C79.4247 3.63586 76.7938 3.67248 74.1516 3.69688C73.0224 3.72128 71.882 3.73348 70.7303 3.73348C70.1544 3.77008 69.5447 3.84328 69.0027 4.0995C68.2236 4.53872 68.7317 5.60019 68.6301 6.29563C68.5285 5.41718 68.3591 4.35572 67.6139 3.9897C67.309 3.84329 67.0041 3.84328 66.6992 3.84328C66.6541 3.84328 66.6089 3.84328 66.5637 3.84328C65.2539 3.84328 63.9441 3.83109 62.6343 3.80668C60.4663 3.80668 58.3322 3.69687 56.1643 3.66027C50.1008 3.55046 44.0373 3.73347 37.9737 3.77007C35.3541 3.79447 32.7232 3.81888 30.081 3.84328C29.4261 3.86768 28.7712 3.87989 28.1163 3.87989C24.8643 3.9165 21.5446 3.95309 18.5298 5.19756C17.6491 5.60019 16.8361 6.14923 16.0908 6.80807C15.786 7.10089 15.515 7.4669 15.2779 7.86952C16.328 8.38195 17.412 8.71138 18.5637 8.85779C17.9878 9.0408 17.3781 9.04079 16.7683 9.07739C16.0005 9.07739 15.2327 9.0896 14.4649 9.11401C14.1939 9.11401 13.9229 9.11401 13.6519 9.18721C13.1777 9.33362 12.7712 9.62642 12.4324 9.99245C12.2631 10.2121 12.0937 10.3951 11.9582 10.6513C11.8566 10.7977 11.8227 10.9807 11.7549 11.1637C11.4501 11.7128 11.0097 12.2252 10.6371 12.701C10.2532 13.2379 9.85796 13.7869 9.45147 14.3481C7.35125 17.2397 5.21718 20.1679 3.96383 23.5719C3.69283 24.3405 3.48958 25.0726 3.32021 25.8778C3.18471 26.6099 4.20094 26.7929 4.84455 27.0857C5.48817 27.4151 6.19951 27.5615 6.77538 28.0007C6.03014 27.8543 5.27363 27.7811 4.50581 27.7811C4.37031 27.7811 4.23482 27.7811 4.1332 27.8909C4.03158 28.0373 4.09932 28.257 4.16707 28.44C4.33644 28.8792 4.47193 29.2818 4.70905 29.6845C4.81067 29.8675 4.84455 30.0871 4.87842 30.3067C4.96875 30.8435 5.11556 31.3438 5.3188 31.8074C5.7253 32.759 6.30116 33.6375 7.01252 34.2963C7.41902 34.6867 7.84807 35.004 8.29973 35.248C8.16423 35.2236 8.02875 35.1992 7.89325 35.1748C7.28351 35.0284 6.70763 34.6624 6.26726 34.1865C6.04143 33.9425 5.84949 33.6619 5.69141 33.3447C5.0478 32.0636 4.43805 30.8191 3.86219 29.5014C3.42182 28.4766 2.7782 27.3053 2.71045 26.1706C2.71045 26.0974 2.71045 26.0364 2.71045 25.9876C2.71045 25.219 2.87984 24.4503 3.15083 23.7183C3.62507 22.5104 4.33645 21.3758 4.94619 20.3509C5.92855 18.5574 7.08026 16.8371 8.23199 15.1534C9.47406 13.3721 10.7726 11.6274 12.1276 9.91926C12.376 9.60204 12.6244 9.30921 12.8728 9.0408C13.8551 7.79632 14.8036 6.73486 16.057 5.6368C18.7669 3.36746 22.4931 3.40406 25.7112 3.33086C29.8439 3.25766 33.8749 3.22104 37.9398 3.18444C39.7013 3.13564 41.4515 3.11123 43.1904 3.11123C44.9518 3.08683 46.702 3.06243 48.4409 3.03802C50.1798 3.03802 51.93 3.02583 53.6914 3.00143C55.4303 2.97703 57.1805 2.96484 58.942 2.96484C60.6809 2.96484 62.4198 2.95262 64.1586 2.92822C65.8975 2.92822 67.6364 2.92822 69.3753 2.92822C71.1142 2.92822 72.8644 2.92822 74.6258 2.92822C76.3647 2.92822 78.1036 2.92822 79.8425 2.92822C81.5814 2.92822 83.3203 2.92822 85.0592 2.92822C86.7755 2.95262 88.503 2.96484 90.2419 2.96484C91.9808 2.96484 93.7197 2.97703 95.4586 3.00143C97.1975 3.00143 98.9364 3.01362 100.675 3.03802C102.392 3.06243 104.119 3.07464 105.858 3.07464C107.597 3.09904 109.325 3.12345 111.041 3.14785C112.78 3.17225 114.507 3.19663 116.224 3.22104C117.963 3.24544 119.69 3.26984 121.406 3.29424C123.145 3.31865 124.873 3.35524 126.589 3.40405C128.215 3.44065 129.773 3.55047 131.264 4.24592C131.467 4.34352 131.67 4.45331 131.874 4.57532C133.5 5.56358 134.855 6.95448 136.074 8.45517C136.368 8.82119 136.65 9.175 136.921 9.51662C137.429 10.1389 137.903 10.7611 138.31 11.4199C138.784 12.2008 139.236 13.006 139.665 13.8357C139.8 14.0553 139.902 14.3847 139.732 14.5677V14.5677Z" fill="#D8E0EB"/>
<path d="M138.106 27.0128C136.921 29.4651 135.633 31.8077 134.245 34.0404C132.72 36.4561 131.128 38.7255 129.367 40.7752C129.028 41.1778 128.52 41.4341 128.012 41.4341C93.121 42.5687 57.6884 42.4589 21.8154 41.2144C21.3072 41.1778 20.833 40.9582 20.4942 40.5556C16.4971 36.0169 13.0758 31.3684 10.9078 26.5369C10.6029 25.8781 10.6707 25.1461 11.0433 24.5604C11.3821 23.9504 11.7434 23.3526 12.1273 22.7669C14.7017 18.8139 17.7504 15.1537 21.1717 11.6765C21.5105 11.347 21.9509 11.1274 22.4251 11.1274C57.7561 10.3588 92.8839 10.4686 127.741 11.3836C128.283 11.4202 128.791 11.6765 129.13 12.1157C132.788 16.7276 136.006 21.1564 138.106 25.0363C138.411 25.6585 138.445 26.3905 138.106 27.0128V27.0128Z" fill="url(#paint4_linear_108_81)"/>
<path d="M138.107 27.0128C137.926 27.4032 137.734 27.7936 137.531 28.184C137.395 28.4403 137.192 28.6599 137.091 28.9527C136.379 30.5632 135.092 31.6979 133.771 32.7227C132.382 33.8574 130.925 34.9921 130.214 36.7124C130.35 36.4195 130.496 36.1267 130.654 35.8339C132.247 32.7227 133.839 29.6115 135.295 26.4271C135.092 26.0123 134.866 25.6097 134.618 25.2193C133.669 23.6088 132.585 22.1081 131.366 20.7172C130.79 20.095 130.18 19.5459 129.638 18.8871C129.3 18.4113 128.791 18.3381 128.283 18.1551C126.149 17.4962 123.947 17.2766 121.779 17.1302C94.1379 14.8608 66.3609 14.0922 38.7193 15.8491C30.5895 16.3615 22.7306 19.1433 15.2783 22.7669C14.8718 22.9499 14.533 23.3526 14.1265 23.6454C13.7539 23.9382 13.2797 24.1578 12.8054 23.9748C12.3651 23.8284 12.1279 23.2794 12.1279 22.7669C14.7024 18.8139 17.7511 15.1537 21.1724 11.6765C21.5111 11.347 21.9515 11.1274 22.4258 11.1274C57.7568 10.3588 92.8845 10.4686 127.741 11.3836C128.283 11.4202 128.791 11.6765 129.13 12.1157C132.789 16.7276 136.007 21.1564 138.107 25.0363C138.412 25.6585 138.446 26.3905 138.107 27.0128V27.0128Z" fill="#66DD5F"/>
<path d="M136.48 26.061C133.804 31.4049 131.027 35.7605 127.978 39.4208C117.849 39.7502 107.552 39.9332 97.2198 40.043C91.2579 40.1406 85.2734 40.1894 79.2664 40.1894C78.6115 40.1894 77.9453 40.1772 77.2678 40.1528C59.1111 40.1528 40.4802 39.7868 21.8832 39.1645C17.3779 34.0036 14.4308 29.7212 12.6016 25.6583C15.176 21.3759 18.4957 17.1666 22.459 13.177C22.6284 13.177 22.8316 13.177 23.001 13.177C38.6171 12.8475 54.4026 12.6646 69.9171 12.6646C74.9756 12.6646 80.0455 12.6889 85.1267 12.7377C92.9517 12.7743 100.811 12.8842 108.636 12.994C110.171 13.0184 111.707 13.055 113.242 13.1038C113.265 13.1038 113.288 13.1038 113.31 13.1038C113.92 13.1038 114.53 13.116 115.139 13.1404C119.317 13.2136 123.473 13.3112 127.605 13.4332H127.707C127.775 13.5064 127.831 13.5918 127.876 13.6894C129.367 15.5195 130.62 17.2032 131.772 18.7771C133.804 21.5589 135.329 23.938 136.48 26.061Z" fill="url(#paint5_linear_108_81)"/>
<path d="M131.569 27.8911C113.852 28.6231 96.1359 29.0257 78.4196 29.0989H77.6743C57.8239 29.1477 37.9848 28.7695 18.157 27.9643C17.073 27.8911 15.3454 27.8545 14.6679 26.7198C14.2953 26.0609 14.5324 25.2557 14.8034 24.5969C15.8197 22.4007 17.0391 20.351 18.428 18.3745C19.0716 17.4594 19.7491 16.5444 20.4266 15.5927C20.596 15.4097 20.7314 15.2267 20.8331 14.9705C21.2057 14.3116 22.0187 13.8724 22.6284 13.4332C22.7413 13.3356 22.8655 13.2502 23.001 13.177C38.6171 12.8475 54.4026 12.6646 69.9171 12.6646C89.09 12.6646 108.534 12.9208 127.605 13.4332C127.707 13.5064 127.808 13.5796 127.876 13.6894H127.91C129.401 15.0803 130.654 16.7274 131.636 18.5575C131.681 18.6307 131.727 18.7039 131.772 18.7771C132.551 20.2046 133.161 21.7785 133.601 23.3524C133.804 24.1576 133.94 24.9995 134.211 25.7681C134.854 27.4152 132.72 27.8545 131.569 27.8911V27.8911Z" fill="url(#paint6_linear_108_81)"/>
<path style="mix-blend-mode:screen" d="M116.495 12.9579C116.043 12.9823 115.592 13.0433 115.14 13.1409C112.6 13.6533 110.228 15.2638 108.365 17.277C106.197 19.6561 104.571 22.5477 102.979 25.4393C101.308 28.5138 99.6257 31.5884 97.9319 34.663C97.2545 35.8343 96.6108 37.1154 96.6786 38.4697C96.6786 39.0553 96.9157 39.6043 97.2206 40.0435C91.2587 40.1411 85.2742 40.1899 79.2671 40.1899C78.6122 40.1899 77.946 40.1777 77.2686 40.1533C79.3688 39.8605 81.4351 39.2017 83.332 38.2134C83.9418 37.884 84.5176 37.518 85.0258 37.0788C85.5 36.6029 85.771 36.0539 86.1775 35.5049C86.6517 34.7728 87.1599 34.114 87.6341 33.3819C89.7682 29.9779 91.7668 26.4641 93.5621 22.8405C94.3074 21.3764 95.0526 19.7293 94.8832 18.0456C94.68 15.8495 92.9524 14.1292 91.0554 13.3971C89.1246 12.6651 87.0582 12.7383 85.0258 12.8115C85.0483 12.7871 85.0822 12.7627 85.1274 12.7383C92.9524 12.7749 100.811 12.8847 108.636 12.9945C110.172 13.0921 111.708 13.1287 113.243 13.1043C113.266 13.1043 113.288 13.1043 113.311 13.1043C114.372 13.0799 115.434 13.0311 116.495 12.9579V12.9579Z" fill="url(#paint7_linear_108_81)"/>
<path d="M38.768 32V20.832H41.408V23.184L41.168 25.264L42.816 23.184L44.736 20.832H47.856L41.408 28.576V32H38.768ZM45.088 32L41.808 25.968L44.064 24.72L48.16 32H45.088ZM53.6863 32.192C52.7263 32.192 51.8996 32.0053 51.2063 31.632C50.5236 31.2587 49.9956 30.7253 49.6223 30.032C49.2489 29.3387 49.0623 28.512 49.0623 27.552C49.0623 26.5813 49.2489 25.7493 49.6223 25.056C49.9956 24.3627 50.5343 23.8347 51.2383 23.472C51.9529 23.0987 52.8116 22.912 53.8143 22.912C55.3823 22.912 56.5183 23.36 57.2222 24.256C57.9369 25.1413 58.2356 26.3627 58.1183 27.92H51.0463L51.0623 26.208H55.5743C55.5423 25.8027 55.3609 25.4773 55.0303 25.232C54.6996 24.976 54.2889 24.848 53.7983 24.848C53.0303 24.848 52.4649 25.088 52.1023 25.568C51.7396 26.048 51.5583 26.7467 51.5583 27.664C51.5583 28.1227 51.6383 28.544 51.7983 28.928C51.9583 29.312 52.1929 29.6213 52.5023 29.856C52.8223 30.08 53.2169 30.192 53.6863 30.192C54.1876 30.192 54.6089 30.0693 54.9503 29.824C55.3023 29.5787 55.5156 29.2693 55.5903 28.896H58.0863C57.9796 29.9093 57.5316 30.7147 56.7423 31.312C55.9636 31.8987 54.9449 32.192 53.6863 32.192ZM66.2845 32V25.728C66.2845 25.4827 66.2525 25.2907 66.1885 25.152C66.1245 25.0027 66.0018 24.928 65.8205 24.928C65.5858 24.928 65.3725 25.104 65.1805 25.456C64.9992 25.7973 64.8498 26.4 64.7325 27.264L64.5725 26.064C64.5085 25.0933 64.6685 24.3253 65.0525 23.76C65.4365 23.1947 65.9538 22.912 66.6045 22.912C67.1592 22.912 67.6178 23.1307 67.9805 23.568C68.3432 23.9947 68.5245 24.624 68.5245 25.456V32H66.2845ZM59.5005 32V23.104H61.6765L61.7245 24.752V32H59.5005ZM62.8925 32V25.728C62.8925 25.4507 62.8498 25.248 62.7645 25.12C62.6898 24.992 62.5725 24.928 62.4125 24.928C62.1352 24.928 61.9165 25.12 61.7565 25.504C61.5965 25.888 61.4578 26.4747 61.3405 27.264L61.3565 25.968C61.3138 25.3493 61.3832 24.8107 61.5645 24.352C61.7458 23.8933 61.9858 23.5413 62.2845 23.296C62.5938 23.04 62.9245 22.912 63.2765 22.912C63.8418 22.912 64.2898 23.1467 64.6205 23.616C64.9512 24.0747 65.1165 24.6773 65.1165 25.424V32H62.8925ZM75.1548 22.912C75.9334 22.912 76.6161 23.12 77.2028 23.536C77.8001 23.9413 78.2694 24.496 78.6108 25.2C78.9521 25.904 79.1228 26.688 79.1228 27.552C79.1228 28.4053 78.9521 29.184 78.6108 29.888C78.2694 30.592 77.8001 31.152 77.2028 31.568C76.6161 31.984 75.9334 32.192 75.1548 32.192C74.6321 32.192 74.1468 32.096 73.6988 31.904C73.2508 31.7013 72.8721 31.4347 72.5628 31.104L72.5148 32H70.1148V20.16H72.5948V23.952C72.9041 23.632 73.2774 23.3813 73.7148 23.2C74.1628 23.008 74.6428 22.912 75.1548 22.912ZM74.5148 30.144C74.9308 30.144 75.2934 30.0267 75.6028 29.792C75.9228 29.5573 76.1734 29.248 76.3548 28.864C76.5361 28.4693 76.6268 28.032 76.6268 27.552C76.6268 27.0613 76.5361 26.624 76.3548 26.24C76.1734 25.8453 75.9228 25.536 75.6028 25.312C75.2934 25.0773 74.9308 24.96 74.5148 24.96C74.0668 24.96 73.6721 25.0987 73.3307 25.376C72.9894 25.6427 72.7441 26.0107 72.5948 26.48V28.608C72.7441 29.0667 72.9894 29.44 73.3307 29.728C73.6721 30.0053 74.0668 30.144 74.5148 30.144ZM86.553 32L86.473 30.4V26.016C86.473 25.6 86.3183 25.2747 86.009 25.04C85.6997 24.7947 85.273 24.672 84.729 24.672C84.2063 24.672 83.7797 24.784 83.449 25.008C83.129 25.2213 82.9423 25.5253 82.889 25.92H80.473C80.5263 25.2907 80.7397 24.752 81.113 24.304C81.4863 23.856 81.9877 23.5147 82.617 23.28C83.257 23.0347 83.9983 22.912 84.841 22.912C85.673 22.912 86.3983 23.04 87.017 23.296C87.6357 23.5413 88.1103 23.9093 88.441 24.4C88.7823 24.88 88.953 25.472 88.953 26.176V32H86.553ZM83.705 32.192C83.1183 32.192 82.601 32.08 82.153 31.856C81.705 31.6213 81.3583 31.3013 81.113 30.896C80.8677 30.4907 80.745 30.032 80.745 29.52C80.745 28.6027 81.097 27.8933 81.801 27.392C82.5157 26.88 83.497 26.624 84.745 26.624H86.713V28.352L84.681 28.368C84.2223 28.368 83.8543 28.4533 83.577 28.624C83.3103 28.784 83.177 29.0293 83.177 29.36C83.177 29.5947 83.273 29.7973 83.465 29.968C83.6677 30.1387 83.9503 30.224 84.313 30.224C84.8143 30.224 85.257 30.1013 85.641 29.856C86.0357 29.6 86.361 29.2533 86.617 28.816L86.889 30.496C86.6223 31.0827 86.2117 31.5147 85.657 31.792C85.113 32.0587 84.4623 32.192 83.705 32.192ZM93.9833 32V20.16H96.4793V32H93.9833ZM91.1033 32V29.984H99.3913V32H91.1033ZM92.2233 22.176V20.16H95.2313V22.176H92.2233ZM104.39 32V23.104H106.886V32H104.39ZM101.51 32V29.984H109.798V32H101.51ZM102.63 25.12V23.104H105.638V25.12H102.63ZM104.294 21.92V19.584H106.95V21.92H104.294Z" fill="white"/>
<defs>
<linearGradient id="paint0_linear_108_81" x1="158.363" y1="-11.4199" x2="137.798" y2="75.1344" gradientUnits="userSpaceOnUse">
<stop stop-color="#9CAEB5"/>
<stop offset="1" stop-color="#32404D"/>
</linearGradient>
<linearGradient id="paint1_linear_108_81" x1="152.842" y1="-23.7914" x2="130.028" y2="168.426" gradientUnits="userSpaceOnUse">
<stop stop-color="#9CAEB5"/>
<stop offset="1" stop-color="#32404D"/>
</linearGradient>
<linearGradient id="paint2_linear_108_81" x1="158.363" y1="-71.1181" x2="41.9931" y2="118.081" gradientUnits="userSpaceOnUse">
<stop stop-color="#D8E7EB"/>
<stop offset="1"/>
</linearGradient>
<linearGradient id="paint3_linear_108_81" x1="7.0459" y1="74.2293" x2="7.0459" y2="36.8585" gradientUnits="userSpaceOnUse">
<stop stop-color="#9CAEB5"/>
<stop offset="1" stop-color="#32404D"/>
</linearGradient>
<linearGradient id="paint4_linear_108_81" x1="139.698" y1="9.33392" x2="139.698" y2="26.5004" gradientUnits="userSpaceOnUse">
<stop stop-color="#66DD5F"/>
<stop offset="1" stop-color="#10D000"/>
</linearGradient>
<linearGradient id="paint5_linear_108_81" x1="11.2466" y1="55.3793" x2="11.2466" y2="24.5969" gradientUnits="userSpaceOnUse">
<stop stop-color="#66DD5F"/>
<stop offset="1" stop-color="#029316"/>
</linearGradient>
<linearGradient id="paint6_linear_108_81" x1="13.1097" y1="45.0941" x2="13.1097" y2="17.496" gradientUnits="userSpaceOnUse">
<stop stop-color="#66DD5F"/>
<stop offset="1" stop-color="#029316"/>
</linearGradient>
<linearGradient id="paint7_linear_108_81" x1="122.152" y1="3.00209" x2="98.3415" y2="52.0227" gradientUnits="userSpaceOnUse">
<stop stop-color="#66DD5F"/>
<stop offset="1"/>
</linearGradient>
</defs>
</svg>
